<?xml version="1.0" encoding="UTF-8" standalone="no"?>
<svg width="299px" height="76px" viewBox="0 0 299 76" version="1.1" xmlns="http://www.w3.org/2000/svg" xmlns:xlink="http://www.w3.org/1999/xlink" xmlns:sketch="http://www.bohemiancoding.com/sketch/ns">
    <!-- Generator: Sketch 3.2.2 (9983) - http://www.bohemiancoding.com/sketch -->
    <title>Group</title>
    <desc>Created with Sketch.</desc>
    <defs></defs>
    <g id="Page-1" stroke="none" stroke-width="1" fill="none" fill-rule="evenodd" sketch:type="MSPage">
        <g id="Group" sketch:type="MSLayerGroup" transform="translate(0.000000, -1.000000)" fill="#000000">
            <path d="M190.71098,40.7980222 L192.188698,40.7980222 C190.666193,46.0115134 186.859985,48.61822 180.769962,48.61822 C176.851749,48.61822 173.554902,47.2868977 170.879322,44.6242134 C168.203742,41.961529 166.865972,38.4374408 166.865972,34.051843 C166.865972,29.5543677 168.310092,25.9072161 171.198375,23.1102787 C174.086658,20.3133413 177.50105,18.9148936 181.441653,18.9148936 C183.814971,18.9148936 185.997942,19.4351162 187.990634,20.4755769 C189.983325,21.5160376 190.979656,22.7858281 190.979656,24.2849865 C190.979656,24.844374 190.794943,25.3701903 190.425511,25.8624513 C190.05608,26.3547123 189.52433,26.6008391 188.830247,26.6008391 C187.352521,26.6008391 186.445748,25.7393953 186.109901,24.0164819 C185.841223,22.7187029 185.427018,21.8125088 184.867274,21.2978723 C184.285139,20.7832359 183.154472,20.5259215 181.475237,20.5259215 C178.475005,20.5259215 176.219268,21.5663666 174.707957,23.647288 C173.196646,25.7282094 172.441002,28.8607323 172.441002,33.0449506 C172.441002,37.3634219 173.25262,40.7420715 174.87588,43.1810009 C176.499139,45.6199303 178.956382,46.8393767 182.247681,46.8393767 C186.68086,46.8393767 189.501931,44.825612 190.71098,40.7980222 L190.71098,40.7980222 Z M204.24554,24.5534912 C205.588928,22.6739492 207.094618,21.264314 208.762658,20.324543 C210.430697,19.384772 212.261035,18.9148936 214.253726,18.9148936 C216.515095,18.9148936 218.390212,19.384772 219.879133,20.324543 C221.368054,21.264314 222.336398,22.4222287 222.784194,23.7983218 C223.23199,25.174415 223.455884,27.4063376 223.455884,30.4941564 L223.455884,38.0794126 C223.455884,41.3014845 223.517455,43.2593113 223.640599,43.9529518 C223.763743,44.6465922 224.127572,45.1556272 224.732096,45.4800719 C225.33662,45.8045167 226.456093,45.9667366 228.090548,45.9667366 L228.090548,47.5106383 L213.884297,47.5106383 L213.884297,45.9667366 L214.522403,45.9667366 C216.156857,45.9667366 217.214759,45.7317974 217.69614,45.2619119 C218.17752,44.7920264 218.457388,44.2382411 218.535752,43.6005394 C218.614117,42.9628377 218.653298,41.1224805 218.653298,38.0794126 L218.653298,29.8228948 C218.653298,27.5405939 218.518962,25.8512691 218.250284,24.7548696 C217.981607,23.6584702 217.349104,22.7522761 216.352759,22.0362601 C215.356413,21.3202441 214.108201,20.9622415 212.608085,20.9622415 C210.861681,20.9622415 209.29442,21.4712765 207.906253,22.4893617 C206.518086,23.5074469 205.29786,25.0345518 204.24554,27.0707222 L204.24554,38.0794126 C204.24554,41.1672315 204.295917,43.0691204 204.396671,43.7851364 C204.497425,44.5011523 204.838864,45.04375 205.420998,45.4129458 C206.003133,45.7821415 207.066632,45.9667366 208.611528,45.9667366 L208.611528,47.5106383 L194.640368,47.5106383 L194.640368,45.9667366 L195.345643,45.9667366 C196.957708,45.9667366 198.004415,45.7373912 198.485796,45.2786934 C198.967176,44.8199957 199.247044,44.2718042 199.325408,43.6341025 C199.403773,42.9964008 199.442954,41.144856 199.442954,38.0794126 L199.442954,10.6919389 C199.442954,7.917377 199.179878,6.16092668 198.653718,5.42253521 C198.127558,4.68414375 196.868151,4.31495355 194.87546,4.31495355 L194.87546,2.77105184 C198.345877,2.77105184 201.234117,2.30117341 203.540265,1.36140246 L204.24554,1.36140246 L204.24554,24.5534912 Z M232.12069,33.7162122 C232.12069,29.5096184 233.531225,25.9911239 236.352339,23.1606233 C239.173453,20.3301227 242.643818,18.9148936 246.763539,18.9148936 C250.905651,18.9148936 254.387211,20.3357165 257.208324,23.1774049 C260.029438,26.0190932 261.439974,29.5319939 261.439974,33.7162122 C261.439974,38.3479404 260.007049,41.9894983 257.141155,44.6409949 C254.275262,47.2924915 250.816092,48.61822 246.763539,48.61822 C242.710987,48.61822 239.257414,47.2701164 236.402716,44.5738687 C233.548018,41.8776211 232.12069,38.2584385 232.12069,33.7162122 L232.12069,33.7162122 Z M237.69572,33.8840276 C237.69572,38.7618863 238.490545,42.1796925 240.08022,44.1375487 C241.669896,46.0954049 243.897646,47.0743182 246.763539,47.0743182 C249.696602,47.0743182 251.941145,46.0954049 253.497235,44.1375487 C255.053326,42.1796925 255.831359,38.7618863 255.831359,33.8840276 C255.831359,29.0509198 255.058923,25.6051446 253.514027,23.5465987 C251.969132,21.4880528 249.718992,20.4587953 246.763539,20.4587953 C243.830477,20.4587953 241.585934,21.482459 240.029844,23.5298172 C238.473753,25.5771754 237.69572,29.0285443 237.69572,33.8840276 L237.69572,33.8840276 Z M293.849033,20.0224753 L293.849033,38.0458496 C293.849033,41.0441664 293.893812,42.9236801 293.983371,43.6844471 C294.07293,44.4452141 294.403175,45.0157807 294.974114,45.3961642 C295.545054,45.7765477 296.569372,45.9667366 298.047098,45.9667366 L298.047098,47.5106383 C294.64385,47.5553893 292.15862,47.9133919 290.591335,48.5846569 L290.188321,48.5846569 C289.471847,47.3540044 289.091227,45.2283639 289.046447,42.2076716 C287.68067,44.333344 286.119005,45.9331681 284.361407,47.0071921 C282.603808,48.081216 280.661523,48.61822 278.534493,48.61822 C276.69853,48.61822 275.075295,48.1986856 273.664738,47.3596044 C272.254181,46.5205232 271.285837,45.4968595 270.759677,44.2885826 C270.233517,43.0803056 269.970441,41.2567298 269.970441,38.8178004 L269.970441,29.4537009 C269.970441,26.2763801 269.914467,24.3353347 269.802518,23.6305064 C269.69057,22.9256782 269.337936,22.4054557 268.744606,22.0698232 C268.151277,21.7341907 267.059791,21.566377 265.470116,21.566377 L265.470116,20.0224753 L274.806612,20.0224753 L274.806612,39.0863051 C274.806612,40.965847 274.918559,42.3307319 275.142457,43.1810009 C275.366355,44.0312699 275.937286,44.775244 276.855267,45.4129458 C277.773249,46.0506475 278.836748,46.3694936 280.045796,46.3694936 C281.76981,46.3694936 283.415435,45.8045207 284.98272,44.674558 C286.550006,43.5445953 287.619102,42.3475241 288.190042,41.0833084 C288.760981,39.8190927 289.046447,38.0122982 289.046447,35.6628708 L289.046447,29.4537009 C289.046447,26.4553841 289.012863,24.6318083 288.945693,23.9829188 C288.878524,23.3340293 288.593059,22.7690564 288.089288,22.2879832 C287.585518,21.80691 286.538811,21.566377 284.949136,21.566377 L284.243861,21.566377 L284.243861,20.0224753 L293.849033,20.0224753 Z" id="chou" sketch:type="MSShapeGroup"></path>
            <path d="M156.223094,20.2776945 L158.678262,20.2776945 L144.840041,48.1798022 L142.384873,48.1798022 L156.223094,20.2776945 Z" id="/" sketch:type="MSShapeGroup"></path>
            <path d="M24.657333,40.7980222 L26.1350517,40.7980222 C24.612546,46.0115134 20.8063387,48.61822 14.7163158,48.61822 C10.7981025,48.61822 7.50125531,47.2868977 4.82567536,44.6242134 C2.15009542,41.961529 0.812325518,38.4374408 0.812325518,34.051843 C0.812325518,29.5543677 2.25644533,25.9072161 5.14472828,23.1102787 C8.03301123,20.3133413 11.447403,18.9148936 15.3880061,18.9148936 C17.7613239,18.9148936 19.9442957,19.4351162 21.936987,20.4755769 C23.9296784,21.5160376 24.9260091,22.7858281 24.9260091,24.2849865 C24.9260091,24.844374 24.7412961,25.3701903 24.3718646,25.8624513 C24.002433,26.3547123 23.4706835,26.6008391 22.7766,26.6008391 C21.2988738,26.6008391 20.3921009,25.7393953 20.0562541,24.0164819 C19.7875766,22.7187029 19.3733717,21.8125088 18.8136269,21.2978723 C18.2314924,20.7832359 17.1008249,20.5259215 15.4215906,20.5259215 C12.4213587,20.5259215 10.1656212,21.5663666 8.65431036,23.647288 C7.14299952,25.7282094 6.38735543,28.8607323 6.38735543,33.0449506 C6.38735543,37.3634219 7.19897315,40.7420715 8.82223295,43.1810009 C10.4454927,45.6199303 12.9027354,46.8393767 16.1940346,46.8393767 C20.627213,46.8393767 23.4482843,44.825612 24.657333,40.7980222 L24.657333,40.7980222 Z M38.1918935,24.5534912 C39.535281,22.6739492 41.0409718,21.264314 42.7090111,20.324543 C44.3770505,19.384772 46.2073884,18.9148936 48.2000798,18.9148936 C50.4614486,18.9148936 52.3365654,19.384772 53.8254865,20.324543 C55.3144075,21.264314 56.2827514,22.4222287 56.7305472,23.7983218 C57.178343,25.174415 57.4022376,27.4063376 57.4022376,30.4941564 L57.4022376,38.0794126 C57.4022376,41.3014845 57.4638086,43.2593113 57.5869524,43.9529518 C57.7100963,44.6465922 58.0739249,45.1556272 58.6784492,45.4800719 C59.2829736,45.8045167 60.4024463,45.9667366 62.036901,45.9667366 L62.036901,47.5106383 L47.8306501,47.5106383 L47.8306501,45.9667366 L48.4687559,45.9667366 C50.1032106,45.9667366 51.1611123,45.7317974 51.6424928,45.2619119 C52.1238733,44.7920264 52.4037415,44.2382411 52.4821057,43.6005394 C52.56047,42.9628377 52.5996516,41.1224805 52.5996516,38.0794126 L52.5996516,29.8228948 C52.5996516,27.5405939 52.4653148,25.8512691 52.1966374,24.7548696 C51.9279599,23.6584702 51.2954578,22.7522761 50.2991121,22.0362601 C49.3027664,21.3202441 48.0545544,20.9622415 46.5544384,20.9622415 C44.8080348,20.9622415 43.2407729,21.4712765 41.8526059,22.4893617 C40.4644389,23.5074469 39.2442137,25.0345518 38.1918935,27.0707222 L38.1918935,38.0794126 C38.1918935,41.1672315 38.2422698,43.0691204 38.3430239,43.7851364 C38.4437779,44.5011523 38.7852171,45.04375 39.3673517,45.4129458 C39.9494862,45.7821415 41.0129853,45.9667366 42.5578808,45.9667366 L42.5578808,47.5106383 L28.5867215,47.5106383 L28.5867215,45.9667366 L29.2919964,45.9667366 C30.9040613,45.9667366 31.9507683,45.7373912 32.4321488,45.2786934 C32.9135293,44.8199957 33.1933975,44.2718042 33.2717617,43.6341025 C33.350126,42.9964008 33.3893075,41.144856 33.3893075,38.0794126 L33.3893075,10.6919389 C33.3893075,7.917377 33.1262314,6.16092668 32.6000714,5.42253521 C32.0739113,4.68414375 30.8145045,4.31495355 28.8218131,4.31495355 L28.8218131,2.77105184 C32.2922306,2.77105184 35.1804703,2.30117341 37.4866187,1.36140246 L38.1918935,1.36140246 L38.1918935,24.5534912 Z M66.0670431,33.7162122 C66.0670431,29.5096184 67.4775787,25.9911239 70.2986923,23.1606233 C73.1198059,20.3301227 76.5901713,18.9148936 80.7098927,18.9148936 C84.8520039,18.9148936 88.3335641,20.3357165 91.1546777,23.1774049 C93.9757913,26.0190932 95.3863269,29.5319939 95.3863269,33.7162122 C95.3863269,38.3479404 93.9534018,41.9894983 91.0875087,44.6409949 C88.2216155,47.2924915 84.7624448,48.61822 80.7098927,48.61822 C76.6573407,48.61822 73.2037673,47.2701164 70.3490691,44.5738687 C67.4943708,41.8776211 66.0670431,38.2584385 66.0670431,33.7162122 L66.0670431,33.7162122 Z M71.642073,33.8840276 C71.642073,38.7618863 72.4368986,42.1796925 74.0265737,44.1375487 C75.6162489,46.0954049 77.8439996,47.0743182 80.7098927,47.0743182 C83.6429553,47.0743182 85.8874981,46.0954049 87.4435885,44.1375487 C88.9996789,42.1796925 89.7777125,38.7618863 89.7777125,33.8840276 C89.7777125,29.0509198 89.0052763,25.6051446 87.4603808,23.5465987 C85.9154852,21.4880528 83.6653451,20.4587953 80.7098927,20.4587953 C77.7768302,20.4587953 75.5322874,21.482459 73.976197,23.5298172 C72.4201065,25.5771754 71.642073,29.0285443 71.642073,33.8840276 L71.642073,33.8840276 Z M127.795386,20.0224753 L127.795386,38.0458496 C127.795386,41.0441664 127.840165,42.9236801 127.929724,43.6844471 C128.019284,44.4452141 128.349528,45.0157807 128.920468,45.3961642 C129.491407,45.7765477 130.515725,45.9667366 131.993451,45.9667366 L131.993451,47.5106383 C128.590203,47.5553893 126.104973,47.9133919 124.537688,48.5846569 L124.134674,48.5846569 C123.418201,47.3540044 123.03758,45.2283639 122.9928,42.2076716 C121.627023,44.333344 120.065359,45.9331681 118.30776,47.0071921 C116.550162,48.081216 114.607876,48.61822 112.480846,48.61822 C110.644884,48.61822 109.021648,48.1986856 107.611091,47.3596044 C106.200534,46.5205232 105.232191,45.4968595 104.706031,44.2885826 C104.17987,43.0803056 103.916794,41.2567298 103.916794,38.8178004 L103.916794,29.4537009 C103.916794,26.2763801 103.860821,24.3353347 103.748872,23.6305064 C103.636923,22.9256782 103.284289,22.4054557 102.690959,22.0698232 C102.09763,21.7341907 101.006144,21.566377 99.416469,21.566377 L99.416469,20.0224753 L108.752965,20.0224753 L108.752965,39.0863051 C108.752965,40.965847 108.864912,42.3307319 109.08881,43.1810009 C109.312708,44.0312699 109.883639,44.775244 110.80162,45.4129458 C111.719602,46.0506475 112.783101,46.3694936 113.99215,46.3694936 C115.716163,46.3694936 117.361788,45.8045207 118.929074,44.674558 C120.496359,43.5445953 121.565455,42.3475241 122.136395,41.0833084 C122.707335,39.8190927 122.9928,38.0122982 122.9928,35.6628708 L122.9928,29.4537009 C122.9928,26.4553841 122.959216,24.6318083 122.892047,23.9829188 C122.824877,23.3340293 122.539412,22.7690564 122.035642,22.2879832 C121.531871,21.80691 120.485164,21.566377 118.895489,21.566377 L118.190214,21.566377 L118.190214,20.0224753 L127.795386,20.0224753 Z" id="chou" sketch:type="MSShapeGroup"></path>
            <path d="M76.109439,72.6767508 L75.6451716,72.6767508 L73.3158299,67.4210784 C73.0863633,66.9144408 72.9049272,66.5917974 72.7715164,66.4531387 C72.6381055,66.31448 72.419315,66.2398187 72.1151383,66.2291527 L72.1151383,65.8611756 L75.0768443,65.8611756 L75.0768443,66.2291527 C74.7513218,66.2291527 74.528529,66.2558174 74.4084593,66.3091477 C74.2883895,66.362478 74.2283555,66.463804 74.2283555,66.6131287 C74.2283555,66.7304553 74.3350826,67.015768 74.54854,67.4690754 L76.3175589,71.4448275 L77.9104764,67.9010485 C78.1612888,67.3357475 78.2866931,66.9677742 78.2866931,66.7971173 C78.2866931,66.4398044 78.0198754,66.2504848 77.4862321,66.2291527 L77.4862321,65.8611756 L79.6955046,65.8611756 L79.6955046,66.2291527 C79.4233465,66.2451518 79.1952174,66.3584769 79.0111104,66.5691315 C78.8270034,66.7797861 78.5695244,67.2530852 78.2386655,67.989043 L76.109439,72.6767508 Z M82.2387295,69.1249722 C82.2387295,68.122363 82.5749198,67.283757 83.2473104,66.609129 C83.9197011,65.934501 84.7468359,65.5971921 85.7287397,65.5971921 C86.71598,65.5971921 87.545783,65.9358342 88.2181736,66.6131287 C88.8905643,67.2904232 89.2267546,68.127696 89.2267546,69.1249722 C89.2267546,70.2289089 88.8852279,71.0968461 88.2021644,71.7288098 C87.5191009,72.3607736 86.6946342,72.6767508 85.7287397,72.6767508 C84.7628452,72.6767508 83.9397126,72.3554407 83.2593173,71.7128108 C82.578922,71.070181 82.2387295,70.2075768 82.2387295,69.1249722 L82.2387295,69.1249722 Z M83.5674948,69.1649697 C83.5674948,70.3275697 83.7569354,71.1421774 84.1358222,71.6088173 C84.514709,72.0754572 85.0456762,72.3087737 85.7287397,72.3087737 C86.4278125,72.3087737 86.962782,72.0754572 87.3336642,71.6088173 C87.7045463,71.1421774 87.8899846,70.3275697 87.8899846,69.1649697 C87.8899846,68.0130357 87.7058804,67.1917618 87.3376665,66.7011233 C86.9694525,66.2104847 86.433149,65.9651691 85.7287397,65.9651691 C85.0296669,65.9651691 84.4946974,66.2091515 84.1238153,66.6971235 C83.7529331,67.1850955 83.5674948,68.0077027 83.5674948,69.1649697 L83.5674948,69.1649697 Z M96.6207735,66.2291527 L94.6436347,66.2291527 L94.6436347,70.1889058 C94.6436347,70.796871 94.6703164,71.2061747 94.7236808,71.4168293 C94.7770451,71.6274839 94.8904426,71.796805 95.0638767,71.9247976 C95.2373108,72.0527903 95.4227491,72.1167857 95.6201972,72.1167857 C96.0044204,72.1167857 96.3379425,71.8981348 96.6207735,71.4608265 L96.876921,71.6128171 C96.7114916,71.9647969 96.4673534,72.230111 96.1444992,72.4087675 C95.8216449,72.5874239 95.4947932,72.6767508 95.1639343,72.6767508 C94.7797111,72.6767508 94.4421867,72.5634256 94.1513511,72.3367719 C93.8605155,72.1101183 93.6790794,71.8448041 93.6070376,71.5408216 C93.5349957,71.236839 93.4989753,70.7035442 93.4989753,69.9409213 L93.4989753,66.2291527 L92.5464267,66.2291527 L92.5464267,65.8611756 C92.9840142,65.8505096 93.3762362,65.6665229 93.7231044,65.30921 C94.0699726,64.9518972 94.2914313,64.4506001 94.3874871,63.8053038 L94.6436347,63.8053038 L94.6436347,65.8611756 L96.6207735,65.8611756 L96.6207735,66.2291527 Z M101.925589,67.2690879 C102.107028,66.7944484 102.401861,66.3971438 102.810098,66.0771622 C103.218336,65.7571805 103.617228,65.5971921 104.006788,65.5971921 C104.358992,65.5971921 104.636483,65.7065175 104.839267,65.9251716 C105.042052,66.1438258 105.143443,66.3678096 105.143443,66.5971297 C105.143443,66.7517875 105.091413,66.8851112 104.987353,66.9971048 C104.883292,67.1090984 104.756554,67.1650943 104.607134,67.1650943 C104.340312,67.1650943 104.13753,66.9677753 103.998783,66.5731312 C103.902727,66.3064799 103.758646,66.1731562 103.566534,66.1731562 C103.337068,66.1731562 103.062245,66.3291449 102.742059,66.641127 C102.421873,66.9531091 102.216424,67.2770857 102.125704,67.6130664 C102.034985,67.9490471 101.989626,68.4103471 101.989626,68.9969801 L101.989626,70.1649073 C101.989626,70.8635339 101.998965,71.3035021 102.017642,71.4848251 C102.03632,71.666148 102.112363,71.8048046 102.245773,71.9007991 C102.379184,71.9967936 102.616652,72.0447901 102.958184,72.0447901 L103.182313,72.0447901 L103.182313,72.4127672 L99.7003073,72.4127672 L99.7003073,72.0447901 L99.8684041,72.0447901 C100.18859,72.0447901 100.416719,72.0007933 100.552798,71.9127984 C100.688877,71.8248034 100.770257,71.7008124 100.796939,71.5408216 C100.823621,71.3808307 100.836962,70.9221972 100.836962,70.1649073 L100.836962,68.3170225 C100.836962,67.6130629 100.827623,67.1717615 100.808946,66.9931051 C100.790268,66.8144486 100.714225,66.675792 100.580814,66.577131 C100.447404,66.47847 100.209936,66.4291402 99.8684041,66.4291402 L99.7003073,66.4291402 L99.7003073,66.0691627 C100.201932,66.0104993 100.858304,65.8531774 101.669441,65.5971921 C101.824198,66.0185013 101.90958,66.5757943 101.925589,67.2690879 L101.925589,67.2690879 Z M113.858222,68.0770375 L109.287589,68.0770375 C109.266244,68.3916861 109.255571,68.6263358 109.255571,68.7809936 C109.255571,69.9329276 109.435673,70.7981983 109.795882,71.3768318 C110.156092,71.9554653 110.693729,72.2447777 111.408811,72.2447777 C112.380042,72.2447777 113.068432,71.8101425 113.474001,70.940859 L113.858222,70.940859 C113.687456,71.4848278 113.348598,71.9101303 112.841637,72.2167794 C112.334675,72.5234285 111.782363,72.6767508 111.184682,72.6767508 C110.629693,72.6767508 110.105396,72.5367609 109.611776,72.2567769 C109.118156,71.976793 108.713927,71.5808216 108.399078,71.068851 C108.084228,70.5568803 107.926806,69.9355919 107.926806,69.2049672 C107.926806,68.1703598 108.230978,67.310422 108.839331,66.625128 C109.447685,65.939834 110.208115,65.5971921 111.120645,65.5971921 C111.979811,65.5971921 112.644187,65.8585065 113.113793,66.3811432 C113.5834,66.9037799 113.83154,67.4690723 113.858222,68.0770375 L113.858222,68.0770375 Z M112.457415,67.7570574 C112.473425,67.6343978 112.481429,67.5250724 112.481429,67.4290779 C112.481429,66.9597715 112.344018,66.5957978 112.069192,66.3371459 C111.794365,66.0784941 111.456841,65.9491701 111.056608,65.9491701 C110.085378,65.9491701 109.506383,66.5517932 109.319608,67.7570574 L112.457415,67.7570574 Z M127.669698,66.2291527 L125.692559,66.2291527 L125.692559,70.1889058 C125.692559,70.796871 125.71924,71.2061747 125.772605,71.4168293 C125.825969,71.6274839 125.939367,71.796805 126.112801,71.9247976 C126.286235,72.0527903 126.471673,72.1167857 126.669121,72.1167857 C127.053344,72.1167857 127.386867,71.8981348 127.669698,71.4608265 L127.925845,71.6128171 C127.760416,71.9647969 127.516277,72.230111 127.193423,72.4087675 C126.870569,72.5874239 126.543717,72.6767508 126.212858,72.6767508 C125.828635,72.6767508 125.491111,72.5634256 125.200275,72.3367719 C124.909439,72.1101183 124.728003,71.8448041 124.655962,71.5408216 C124.58392,71.236839 124.547899,70.7035442 124.547899,69.9409213 L124.547899,66.2291527 L123.595351,66.2291527 L123.595351,65.8611756 C124.032938,65.8505096 124.42516,65.6665229 124.772028,65.30921 C125.118897,64.9518972 125.340355,64.4506001 125.436411,63.8053038 L125.692559,63.8053038 L125.692559,65.8611756 L127.669698,65.8611756 L127.669698,66.2291527 Z M132.974513,67.2690879 C133.155952,66.7944484 133.450785,66.3971438 133.859023,66.0771622 C134.26726,65.7571805 134.666152,65.5971921 135.055712,65.5971921 C135.407916,65.5971921 135.685407,65.7065175 135.888191,65.9251716 C136.090976,66.1438258 136.192367,66.3678096 136.192367,66.5971297 C136.192367,66.7517875 136.140337,66.8851112 136.036277,66.9971048 C135.932216,67.1090984 135.805478,67.1650943 135.656058,67.1650943 C135.389236,67.1650943 135.186454,66.9677753 135.047707,66.5731312 C134.951651,66.3064799 134.80757,66.1731562 134.615458,66.1731562 C134.385992,66.1731562 134.111169,66.3291449 133.790983,66.641127 C133.470797,66.9531091 133.265348,67.2770857 133.174628,67.6130664 C133.083909,67.9490471 133.03855,68.4103471 133.03855,68.9969801 L133.03855,70.1649073 C133.03855,70.8635339 133.047889,71.3035021 133.066566,71.4848251 C133.085244,71.666148 133.161287,71.8048046 133.294697,71.9007991 C133.428108,71.9967936 133.665576,72.0447901 134.007108,72.0447901 L134.231237,72.0447901 L134.231237,72.4127672 L130.749231,72.4127672 L130.749231,72.0447901 L130.917328,72.0447901 C131.237514,72.0447901 131.465643,72.0007933 131.601722,71.9127984 C131.737801,71.8248034 131.819181,71.7008124 131.845863,71.5408216 C131.872545,71.3808307 131.885886,70.9221972 131.885886,70.1649073 L131.885886,68.3170225 C131.885886,67.6130629 131.876547,67.1717615 131.85787,66.9931051 C131.839192,66.8144486 131.763149,66.675792 131.629738,66.577131 C131.496328,66.47847 131.25886,66.4291402 130.917328,66.4291402 L130.749231,66.4291402 L130.749231,66.0691627 C131.250856,66.0104993 131.907228,65.8531774 132.718366,65.5971921 C132.873122,66.0185013 132.958504,66.5757943 132.974513,67.2690879 L132.974513,67.2690879 Z M145.64357,65.8611756 L145.64357,70.1569078 C145.64357,70.8715335 145.654243,71.3195011 145.675589,71.5008241 C145.696935,71.682147 145.775646,71.8181372 145.911725,71.9087986 C146.047804,71.9994601 146.291942,72.0447901 146.644147,72.0447901 L146.644147,72.4127672 C145.833009,72.4234333 145.240674,72.5087604 144.867123,72.6687512 L144.771068,72.6687512 C144.600302,72.3754347 144.509584,71.8688047 144.498911,71.148846 C144.173389,71.6554836 143.801178,72.0367894 143.382268,72.2927747 C142.963358,72.54876 142.500429,72.6767508 141.993468,72.6767508 C141.55588,72.6767508 141.168995,72.576758 140.832799,72.3767695 C140.496604,72.1767809 140.265807,71.9327986 140.140401,71.6448151 C140.014994,71.3568316 139.952292,70.9221964 139.952292,70.3408964 L139.952292,68.1090355 C139.952292,67.3517456 139.938951,66.8891124 139.912269,66.721122 C139.885587,66.5531316 139.801539,66.4291406 139.660124,66.3491452 C139.518708,66.2691498 139.258561,66.2291527 138.879674,66.2291527 L138.879674,65.8611756 L141.104956,65.8611756 L141.104956,70.4048924 C141.104956,70.8528667 141.131638,71.1781765 141.185002,71.3808315 C141.238367,71.5834866 141.374444,71.7608071 141.593237,71.9127984 C141.812031,72.0647897 142.065508,72.1407842 142.353675,72.1407842 C142.764581,72.1407842 143.156803,72.0061272 143.530353,71.7368093 C143.903904,71.4674915 144.158714,71.1821788 144.294793,70.8808627 C144.430873,70.5795466 144.498911,70.1489111 144.498911,69.5889432 L144.498911,68.1090355 C144.498911,67.3944098 144.490907,66.9597746 144.474897,66.8051168 C144.458888,66.650459 144.390849,66.5158021 144.27078,66.401142 C144.15071,66.2864819 143.901235,66.2291527 143.522349,66.2291527 L143.354252,66.2291527 L143.354252,65.8611756 L145.64357,65.8611756 Z M155.623079,70.8128669 L155.975281,70.8128669 C155.612404,72.0554624 154.705224,72.6767508 153.253714,72.6767508 C152.319838,72.6767508 151.53406,72.3594404 150.896356,71.7248101 C150.258652,71.0901798 149.939805,70.2502406 149.939805,69.2049672 C149.939805,68.1330286 150.284,67.2637582 150.9724,66.5971297 C151.6608,65.9305013 152.474594,65.5971921 153.413806,65.5971921 C153.979468,65.5971921 154.499762,65.7211831 154.974705,65.9691689 C155.449648,66.2171547 155.687115,66.5197994 155.687115,66.8771123 C155.687115,67.010438 155.643091,67.1357622 155.555039,67.2530888 C155.466988,67.3704155 155.34025,67.4290779 155.17482,67.4290779 C154.822616,67.4290779 154.606493,67.2237594 154.526447,66.8131163 C154.46241,66.5038007 154.363687,66.2878163 154.230276,66.1651567 C154.091529,66.042497 153.822043,65.9811681 153.421811,65.9811681 C152.706728,65.9811681 152.169091,66.2291502 151.808882,66.7251218 C151.448672,67.2210933 151.26857,67.967706 151.26857,68.9649821 C151.26857,69.9942565 151.462013,70.7995315 151.848905,71.3808315 C152.235796,71.9621315 152.821461,72.2527772 153.605917,72.2527772 C154.662531,72.2527772 155.334911,71.7728119 155.623079,70.8128669 L155.623079,70.8128669 Z M167.073194,65.5971921 L167.289318,65.5971921 C167.380038,65.8958416 167.425397,66.2558156 167.425397,66.6771248 C167.766928,66.3144789 168.133803,66.0438318 168.526031,65.8651754 C168.918258,65.6865189 169.33316,65.5971921 169.770748,65.5971921 C170.677941,65.5971921 171.433035,65.9158357 172.036052,66.5531325 C172.639069,67.1904293 172.940573,68.0317018 172.940573,69.0769752 C172.940573,70.1009164 172.637735,70.9568545 172.03205,71.6448151 C171.426365,72.3327756 170.629914,72.6767508 169.642674,72.6767508 C169.237105,72.6767508 168.848885,72.5954233 168.478003,72.432766 C168.107121,72.2701086 167.756255,72.0287927 167.425397,71.7088111 L167.425397,74.196656 C167.425397,74.9539459 167.440072,75.4152459 167.469422,75.5805697 C167.498772,75.7458936 167.58282,75.8698846 167.721567,75.9525465 C167.860314,76.0352085 168.119128,76.0765388 168.498014,76.0765388 L168.498014,76.4445159 L165.072041,76.4445159 L165.072041,76.0765388 L165.312179,76.0765388 C165.691066,76.0765388 165.937873,76.0218761 166.052606,75.912549 C166.167339,75.803222 166.234044,75.6725648 166.252721,75.5205735 C166.271399,75.3685822 166.280737,74.9272808 166.280737,74.196656 L166.280737,68.245027 C166.280737,67.5464004 166.271399,67.1064322 166.252721,66.9251093 C166.234044,66.7437864 166.158001,66.6051297 166.02459,66.5091352 C165.891179,66.4131407 165.653711,66.3651442 165.312179,66.3651442 L165.072041,66.3651442 L165.072041,65.9971671 C165.600348,65.9438369 166.267392,65.8105132 167.073194,65.5971921 L167.073194,65.5971921 Z M167.425397,71.180844 C167.713564,71.5328238 168.01907,71.798138 168.341925,71.9767944 C168.664779,72.1554508 169.004971,72.2447777 169.362512,72.2447777 C169.965529,72.2447777 170.49116,71.9861297 170.939421,71.4688261 C171.387681,70.9515224 171.611808,70.127582 171.611808,68.9969801 C171.611808,68.0157031 171.395686,67.2824228 170.963435,66.7971173 C170.531183,66.3118118 170.016225,66.0691627 169.418545,66.0691627 C169.050331,66.0691627 168.7008,66.1624892 168.369941,66.3491452 C168.039082,66.5358012 167.724237,66.8184474 167.425397,67.1970923 L167.425397,71.180844 Z M178.613601,67.2690879 C178.79504,66.7944484 179.089873,66.3971438 179.49811,66.0771622 C179.906348,65.7571805 180.30524,65.5971921 180.6948,65.5971921 C181.047004,65.5971921 181.324495,65.7065175 181.527279,65.9251716 C181.730064,66.1438258 181.831454,66.3678096 181.831454,66.5971297 C181.831454,66.7517875 181.779425,66.8851112 181.675365,66.9971048 C181.571304,67.1090984 181.444566,67.1650943 181.295146,67.1650943 C181.028324,67.1650943 180.825542,66.9677753 180.686795,66.5731312 C180.590739,66.3064799 180.446658,66.1731562 180.254546,66.1731562 C180.025079,66.1731562 179.750257,66.3291449 179.430071,66.641127 C179.109885,66.9531091 178.904436,67.2770857 178.813716,67.6130664 C178.722997,67.9490471 178.677638,68.4103471 178.677638,68.9969801 L178.677638,70.1649073 C178.677638,70.8635339 178.686976,71.3035021 178.705654,71.4848251 C178.724332,71.666148 178.800375,71.8048046 178.933785,71.9007991 C179.067196,71.9967936 179.304664,72.0447901 179.646196,72.0447901 L179.870325,72.0447901 L179.870325,72.4127672 L176.388319,72.4127672 L176.388319,72.0447901 L176.556416,72.0447901 C176.876602,72.0447901 177.104731,72.0007933 177.24081,71.9127984 C177.376889,71.8248034 177.458269,71.7008124 177.484951,71.5408216 C177.511633,71.3808307 177.524974,70.9221972 177.524974,70.1649073 L177.524974,68.3170225 C177.524974,67.6130629 177.515635,67.1717615 177.496958,66.9931051 C177.47828,66.8144486 177.402237,66.675792 177.268826,66.577131 C177.135416,66.47847 176.897948,66.4291402 176.556416,66.4291402 L176.388319,66.4291402 L176.388319,66.0691627 C176.889944,66.0104993 177.546315,65.8531774 178.357453,65.5971921 C178.51221,66.0185013 178.597592,66.5757943 178.613601,67.2690879 L178.613601,67.2690879 Z M190.706326,68.0770375 L186.135694,68.0770375 C186.114348,68.3916861 186.103675,68.6263358 186.103675,68.7809936 C186.103675,69.9329276 186.283777,70.7981983 186.643986,71.3768318 C187.004196,71.9554653 187.541833,72.2447777 188.256915,72.2447777 C189.228146,72.2447777 189.916536,71.8101425 190.322105,70.940859 L190.706326,70.940859 C190.53556,71.4848278 190.196702,71.9101303 189.689741,72.2167794 C189.18278,72.5234285 188.630467,72.6767508 188.032786,72.6767508 C187.477797,72.6767508 186.953501,72.5367609 186.45988,72.2567769 C185.96626,71.976793 185.562031,71.5808216 185.247182,71.068851 C184.932332,70.5568803 184.77491,69.9355919 184.77491,69.2049672 C184.77491,68.1703598 185.079082,67.310422 185.687435,66.625128 C186.295789,65.939834 187.056219,65.5971921 187.968749,65.5971921 C188.827915,65.5971921 189.492291,65.8585065 189.961898,66.3811432 C190.431504,66.9037799 190.679644,67.4690723 190.706326,68.0770375 L190.706326,68.0770375 Z M189.305519,67.7570574 C189.321529,67.6343978 189.329533,67.5250724 189.329533,67.4290779 C189.329533,66.9597715 189.192122,66.5957978 188.917296,66.3371459 C188.64247,66.0784941 188.304945,65.9491701 187.904713,65.9491701 C186.933482,65.9491701 186.354487,66.5517932 186.167712,67.7570574 L189.305519,67.7570574 Z M186.92815,64.3972669 L186.663998,64.3972669 L187.86469,62.5333831 C188.110166,62.1494051 188.303608,61.8920904 188.445024,61.7614312 C188.586439,61.630772 188.745196,61.5654434 188.921298,61.5654434 C189.076055,61.5654434 189.196123,61.6121067 189.281506,61.7054347 C189.366889,61.7987627 189.409579,61.8987554 189.409579,62.005416 C189.409579,62.1494077 189.352214,62.2880644 189.23748,62.42139 C189.122747,62.5547157 188.758541,62.8773591 188.144851,63.3893297 L186.92815,64.3972669 Z M197.612064,65.8611756 L197.612064,66.2291527 L196.243276,66.2291527 L196.243276,70.1649073 C196.243276,70.8635339 196.252614,71.3035021 196.271292,71.4848251 C196.289969,71.666148 196.366012,71.8048046 196.499423,71.9007991 C196.632834,71.9967936 196.870302,72.0447901 197.211833,72.0447901 L197.556032,72.0447901 L197.556032,72.4127672 L194.009989,72.4127672 L194.009989,72.0447901 C194.378203,72.0447901 194.633014,72.0074595 194.77443,71.9327971 C194.915845,71.8581347 195.003895,71.7448096 195.038582,71.5928183 C195.073268,71.440827 195.090612,70.9648615 195.090612,70.1649073 L195.090612,66.2291527 L193.865906,66.2291527 L193.865906,65.8611756 L195.090612,65.8611756 L195.090612,65.2692125 C195.090612,64.6079171 195.117293,64.0959541 195.170658,63.7333083 C195.224022,63.3706624 195.374774,62.9960228 195.622918,62.6093783 C195.871062,62.2227338 196.183239,61.925422 196.559458,61.7174339 C196.935676,61.5094459 197.382596,61.4054534 197.90023,61.4054534 C198.529929,61.4054534 199.034215,61.5361106 199.413101,61.7974289 C199.791988,62.0587473 199.981429,62.3253947 199.981429,62.5973791 C199.981429,62.7520369 199.928065,62.8800276 199.821337,62.9813551 C199.714608,63.0826827 199.589204,63.1333457 199.44512,63.1333457 C199.162289,63.1333457 198.903476,62.9146948 198.668673,62.4773866 C198.407187,61.9974141 198.068329,61.7574314 197.652087,61.7574314 C197.315892,61.7574314 197.021058,61.878756 196.767578,62.1214087 C196.514097,62.3640615 196.363345,62.6667063 196.315317,63.0293521 C196.267289,63.391998 196.243276,64.1706084 196.243276,65.3652065 L196.243276,65.8611756 L197.612064,65.8611756 Z M206.91118,68.0770375 L202.340548,68.0770375 C202.319202,68.3916861 202.308529,68.6263358 202.308529,68.7809936 C202.308529,69.9329276 202.488631,70.7981983 202.84884,71.3768318 C203.20905,71.9554653 203.746687,72.2447777 204.461769,72.2447777 C205.433,72.2447777 206.12139,71.8101425 206.526959,70.940859 L206.91118,70.940859 C206.740414,71.4848278 206.401556,71.9101303 205.894595,72.2167794 C205.387633,72.5234285 204.835321,72.6767508 204.23764,72.6767508 C203.682651,72.6767508 203.158354,72.5367609 202.664734,72.2567769 C202.171114,71.976793 201.766885,71.5808216 201.452036,71.068851 C201.137186,70.5568803 200.979764,69.9355919 200.979764,69.2049672 C200.979764,68.1703598 201.283936,67.310422 201.892289,66.625128 C202.500643,65.939834 203.261073,65.5971921 204.173603,65.5971921 C205.032769,65.5971921 205.697145,65.8585065 206.166751,66.3811432 C206.636358,66.9037799 206.884498,67.4690723 206.91118,68.0770375 L206.91118,68.0770375 Z M205.510373,67.7570574 C205.526383,67.6343978 205.534387,67.5250724 205.534387,67.4290779 C205.534387,66.9597715 205.396976,66.5957978 205.12215,66.3371459 C204.847323,66.0784941 204.509799,65.9491701 204.109567,65.9491701 C203.138336,65.9491701 202.559341,66.5517932 202.372566,67.7570574 L205.510373,67.7570574 Z M203.133004,64.3972669 L202.868852,64.3972669 L204.069543,62.5333831 C204.315019,62.1494051 204.508462,61.8920904 204.649878,61.7614312 C204.791293,61.630772 204.95005,61.5654434 205.126152,61.5654434 C205.280909,61.5654434 205.400977,61.6121067 205.48636,61.7054347 C205.571742,61.7987627 205.614433,61.8987554 205.614433,62.005416 C205.614433,62.1494077 205.557068,62.2880644 205.442334,62.42139 C205.327601,62.5547157 204.963395,62.8773591 204.349705,63.3893297 L203.133004,64.3972669 Z M212.560194,67.2690879 C212.741633,66.7944484 213.036466,66.3971438 213.444704,66.0771622 C213.852941,65.7571805 214.251833,65.5971921 214.641393,65.5971921 C214.993597,65.5971921 215.271088,65.7065175 215.473872,65.9251716 C215.676657,66.1438258 215.778048,66.3678096 215.778048,66.5971297 C215.778048,66.7517875 215.726018,66.8851112 215.621958,66.9971048 C215.517897,67.1090984 215.391159,67.1650943 215.241739,67.1650943 C214.974917,67.1650943 214.772135,66.9677753 214.633388,66.5731312 C214.537332,66.3064799 214.393251,66.1731562 214.201139,66.1731562 C213.971673,66.1731562 213.69685,66.3291449 213.376664,66.641127 C213.056478,66.9531091 212.851029,67.2770857 212.760309,67.6130664 C212.66959,67.9490471 212.624231,68.4103471 212.624231,68.9969801 L212.624231,70.1649073 C212.624231,70.8635339 212.63357,71.3035021 212.652247,71.4848251 C212.670925,71.666148 212.746968,71.8048046 212.880378,71.9007991 C213.013789,71.9967936 213.251257,72.0447901 213.592789,72.0447901 L213.816918,72.0447901 L213.816918,72.4127672 L210.334912,72.4127672 L210.334912,72.0447901 L210.503009,72.0447901 C210.823195,72.0447901 211.051324,72.0007933 211.187403,71.9127984 C211.323482,71.8248034 211.404862,71.7008124 211.431544,71.5408216 C211.458226,71.3808307 211.471567,70.9221972 211.471567,70.1649073 L211.471567,68.3170225 C211.471567,67.6130629 211.462228,67.1717615 211.443551,66.9931051 C211.424873,66.8144486 211.34883,66.675792 211.215419,66.577131 C211.082009,66.47847 210.844541,66.4291402 210.503009,66.4291402 L210.334912,66.4291402 L210.334912,66.0691627 C210.836537,66.0104993 211.492909,65.8531774 212.304047,65.5971921 C212.458803,66.0185013 212.544185,66.5757943 212.560194,67.2690879 L212.560194,67.2690879 Z M224.652919,68.0770375 L220.082287,68.0770375 C220.060941,68.3916861 220.050268,68.6263358 220.050268,68.7809936 C220.050268,69.9329276 220.23037,70.7981983 220.59058,71.3768318 C220.950789,71.9554653 221.488426,72.2447777 222.203509,72.2447777 C223.17474,72.2447777 223.863129,71.8101425 224.268698,70.940859 L224.652919,70.940859 C224.482154,71.4848278 224.143295,71.9101303 223.636334,72.2167794 C223.129373,72.5234285 222.57706,72.6767508 221.979379,72.6767508 C221.42439,72.6767508 220.900094,72.5367609 220.406473,72.2567769 C219.912853,71.976793 219.508625,71.5808216 219.193775,71.068851 C218.878925,70.5568803 218.721503,69.9355919 218.721503,69.2049672 C218.721503,68.1703598 219.025675,67.310422 219.634029,66.625128 C220.242382,65.939834 221.002812,65.5971921 221.915343,65.5971921 C222.774508,65.5971921 223.438884,65.8585065 223.908491,66.3811432 C224.378097,66.9037799 224.626237,67.4690723 224.652919,68.0770375 L224.652919,68.0770375 Z M223.252113,67.7570574 C223.268122,67.6343978 223.276126,67.5250724 223.276126,67.4290779 C223.276126,66.9597715 223.138715,66.5957978 222.863889,66.3371459 C222.589063,66.0784941 222.251538,65.9491701 221.851306,65.9491701 C220.880075,65.9491701 220.30108,66.5517932 220.114305,67.7570574 L223.252113,67.7570574 Z M220.874743,64.3972669 L220.610591,64.3972669 L221.811283,62.5333831 C222.056759,62.1494051 222.250201,61.8920904 222.391617,61.7614312 C222.533032,61.630772 222.691789,61.5654434 222.867891,61.5654434 C223.022648,61.5654434 223.142716,61.6121067 223.228099,61.7054347 C223.313482,61.7987627 223.356172,61.8987554 223.356172,62.005416 C223.356172,62.1494077 223.298807,62.2880644 223.184073,62.42139 C223.06934,62.5547157 222.705134,62.8773591 222.091444,63.3893297 L220.874743,64.3972669 Z" id="votre-truc-préféré" sketch:type="MSShapeGroup"></path>
        </g>
    </g>
</svg>